<?xml version="1.0" standalone="no"?><!DOCTYPE svg PUBLIC "-//W3C//DTD SVG 1.1//EN" "http://www.w3.org/Graphics/SVG/1.1/DTD/svg11.dtd"><svg t="1601560077748" class="icon" viewBox="0 0 1024 1024" version="1.1" xmlns="http://www.w3.org/2000/svg" p-id="13215" xmlns:xlink="http://www.w3.org/1999/xlink" width="250" height="250"><defs><style type="text/css"></style></defs><path d="M763.249125 124.065469C779.673671 124.065469 792.988396 110.705146 792.988396 94.224351 792.988396 77.743557 779.673671 64.383234 763.249125 64.383234L257.681518 64.383234C241.256973 64.383234 227.942248 77.743557 227.942248 94.224351 227.942248 110.705146 241.256973 124.065469 257.681518 124.065469L763.249125 124.065469Z" p-id="13216" fill="#2c2c2c"></path><path d="M787.288357 183.747705C804.221896 183.747705 824.245416 195.955304 831.998469 210.987632L948.434976 436.745374C961.370814 461.826562 948.972934 482.158882 920.769294 482.158882L99.496614 482.158882C71.281441 482.158882 58.896449 461.823936 71.830933 436.745374L188.267439 210.987632C196.026613 195.943436 216.038192 183.747705 232.97755 183.747705L787.288357 183.747705ZM779.182286 413.097444C782.232248 420.748461 790.885936 424.469885 798.51084 421.409479 806.135744 418.349072 809.844467 409.665748 806.794506 402.014731L747.315964 252.809142C744.266002 245.158126 735.612314 241.436702 727.987411 244.497108 720.362506 247.557514 716.653783 256.240839 719.703744 263.891856L779.182286 413.097444ZM214.136138 402.014731C211.086177 409.665748 214.7949 418.349072 222.419803 421.409479 230.044708 424.469885 238.698396 420.748461 241.748357 413.097444L301.2269 263.891856C304.276861 256.240839 300.568138 247.557514 292.943234 244.497108 285.31833 241.436702 276.664642 245.158126 273.614679 252.809142L214.136138 402.014731ZM629.711164 410.482251C631.321724 418.562624 639.155421 423.802974 647.208217 422.1869 655.261012 420.570824 660.483478 412.7103 658.872919 404.629925L629.133647 255.424336C627.523088 247.343962 619.689391 242.103613 611.636595 243.719687 603.583799 245.335763 598.361334 253.196287 599.971893 261.276662L629.711164 410.482251ZM362.057726 404.629925C360.447166 412.7103 365.669631 420.570824 373.722427 422.1869 381.775223 423.802974 389.60892 418.562624 391.21948 410.482251L420.958751 261.276662C422.569311 253.196287 417.346845 245.335763 409.294049 243.719687 401.241253 242.103613 393.407555 247.343962 391.796997 255.424336L362.057726 404.629925ZM495.595687 407.556088C495.595687 415.796485 502.253049 422.476647 510.465322 422.476647 518.677595 422.476647 525.334957 415.796485 525.334957 407.556088L525.334957 258.350499C525.334957 250.110102 518.677595 243.42994 510.465322 243.42994 502.253049 243.42994 495.595687 250.110102 495.595687 258.350499L495.595687 407.556088Z" p-id="13217" fill="#2c2c2c"></path><path d="M792.988396 885.013686C792.988396 893.21234 786.273177 899.934531 778.064022 899.934531L242.866622 899.934531C234.643768 899.934531 227.942248 893.21182 227.942248 885.013686L227.942248 482.158882 168.463706 482.158882 168.463706 885.013686C168.463706 926.176904 201.798158 959.616766 242.866622 959.616766L778.064022 959.616766C819.090606 959.616766 852.466937 926.205783 852.466937 885.013686L852.466937 482.158882 792.988396 482.158882 792.988396 885.013686Z" p-id="13218" fill="#2c2c2c"></path><path d="M436.117103 872.981257 436.117103 899.934531 495.595663 899.934531 495.595663 872.981257 495.595663 509.112156 495.595663 482.158882 436.117103 482.158882 436.117103 509.112156Z" p-id="13219" fill="#2c2c2c"></path><path d="M317.160086 661.205589a29.1003 29.2 0 1 0 59.478457 0 29.1003 29.2 0 1 0-59.478457 0Z" p-id="13220" fill="#2c2c2c"></path></svg>