<?xml version="1.0" standalone="no"?><!DOCTYPE svg PUBLIC "-//W3C//DTD SVG 1.1//EN" "http://www.w3.org/Graphics/SVG/1.1/DTD/svg11.dtd"><svg t="1601559998608" class="icon" viewBox="0 0 1024 1024" version="1.1" xmlns="http://www.w3.org/2000/svg" p-id="12283" width="250" height="250" xmlns:xlink="http://www.w3.org/1999/xlink"><defs><style type="text/css"></style></defs><path d="M637.44 816.64C716.8 846.08 766.72 898.56 766.72 960H247.04c0-61.44 53.76-115.2 135.68-143.36C232.96 762.88 125.44 619.52 125.44 450.56 125.44 235.52 296.96 64 512 64s386.56 171.52 386.56 386.56c0 168.96-107.52 312.32-261.12 366.08zM519.68 332.8c-111.36 0-204.8 93.44-204.8 204.8s93.44 204.8 204.8 204.8c115.2 0 204.8-93.44 204.8-204.8s-90.88-204.8-204.8-204.8z m0 314.88c-53.76 0-99.84-43.52-99.84-99.84 0-53.76 46.08-99.84 99.84-99.84s99.84 43.52 99.84 99.84c0 53.76-43.52 99.84-99.84 99.84z" fill="#515151" p-id="12284"></path></svg>